# xmcd
#
# Track frame offsets: 
#        150
#        15395
#        31830
#        46605
#        66972
#        82630
#        101122
#        117125
#        134170
#        148202
#        169052
#        184215
#        200755
#        218172
#        233065
#        249315
#        261897
#        276845
#
# Disc length: 3945 seconds
#
# Revision: 0
# Processed by: cddbd v1.5.2PL0 Copyright (c) Steve Scherf et al.
# Submitted via: ExactAudioCopy v0.99pb5
#
DISCID=000f6712
DTITLE=Various Artist - Lite Sounds of 60s, 70s, 80s
DYEAR=1975
DGENRE=Slow Rock
TTITLE0=Hues Corporation - Rock The Boat (1974)
TTITLE1=Paul Davis - Cool Night (1981)
TTITLE2=Alabama - Love In The First Degree (1981)
TTITLE3=Boy Meets Girl - Waiting For A Star To Fall (1988)
TTITLE4=America - Tin Man (1974)
TTITLE5=Love Unlimited Orchestra - Love's Theme (1973)
TTITLE6=Toby Beau - My Angel Baby (1989)
TTITLE7=Gladys Knight and The Pips - Best Thing That Ever Happened (1974
TTITLE7=)
TTITLE8=Mac Davis - Baby Don't Get Hooked On Me (1972)
TTITLE9=Mr Mister - Broken Wings (1985)
TTITLE10=Friends Of Distinction - Love Or Let Me Be Lonely(1970)
TTITLE11=Ronnie Milsap - Any Day Now (1982)
TTITLE12=Dionne Warwick - Deja Vu (1979)
TTITLE13=Bertie Higgins - Key Largo (1982)
TTITLE14=Jefferson Starship - With Your Love (1976)
TTITLE15=Ed Ames - My Cup Runneth Over (1965)
TTITLE16=Harry Nilsson - Without You (1971)
TTITLE17=Restless Heart - I'll Still Be Loving You (1987)
EXTD=
EXTT0=
EXTT1=
EXTT2=
EXTT3=
EXTT4=
EXTT5=
EXTT6=
EXTT7=
EXTT8=
EXTT9=
EXTT10=
EXTT11=
EXTT12=
EXTT13=
EXTT14=
EXTT15=
EXTT16=
EXTT17=
PLAYORDER=
